<svg xmlns="http://www.w3.org/2000/svg" viewBox="0 0 24 24" aria-hidden="true">
  <path
    fill="currentColor"
    d="M12 .296c-6.63 0-12 5.372-12 12 0 5.302 3.438 9.8 8.205 11.387.6.11.82-.261.82-.58 0-.287-.01-1.044-.016-2.05-3.338.727-4.042-1.61-4.042-1.61-.546-1.387-1.333-1.757-1.333-1.757-1.09-.745.083-.73.083-.73 1.205.085 1.84 1.236 1.84 1.236 1.07 1.833 2.807 1.304 3.492.997.108-.775.418-1.305.762-1.604-2.665-.304-5.467-1.332-5.467-5.931 0-1.31.469-2.381 1.236-3.221-.124-.303-.536-1.523.117-3.176 0 0 1.008-.322 3.303 1.23a11.48 11.48 0 0 1 3.003-.404c1.02.005 2.045.138 3.003.404 2.292-1.552 3.298-1.23 3.298-1.23.656 1.653.244 2.873.12 3.176.77.84 1.234 1.91 1.234 3.221 0 4.61-2.807 5.624-5.479 5.921.43.372.823 1.104.823 2.224 0 1.605-.014 2.896-.014 3.286 0 .322.216.696.825.578C20.565 22.092 24 17.593 24 12.296c0-6.628-5.373-12-12-12Z"
  />
</svg>
